<?xml version="1.0" standalone="no"?>
<!DOCTYPE svg PUBLIC "-//W3C//DTD SVG 20010904//EN"
 "http://www.w3.org/TR/2001/REC-SVG-20010904/DTD/svg10.dtd">
<svg version="1.0" xmlns="http://www.w3.org/2000/svg"
 width="984.000000pt" height="984.000000pt" viewBox="0 0 984.000000 984.000000"
 preserveAspectRatio="xMidYMid meet">
<metadata>
Created by potrace 1.14, written by Peter Selinger 2001-2017
</metadata>
<g transform="translate(0.000000,984.000000) scale(0.100000,-0.100000)"
fill="#000000" stroke="none">
<path d="M3938 9819 c-9 -5 -35 -11 -59 -14 -23 -3 -45 -9 -49 -14 -3 -4 -15
-11 -28 -15 -12 -4 -20 -11 -17 -15 2 -5 -8 -14 -22 -20 -15 -7 -33 -21 -40
-30 -8 -13 -21 -17 -38 -14 -15 3 -25 1 -25 -6 0 -7 -4 -9 -10 -6 -5 3 -10 2
-10 -4 0 -6 -18 -20 -40 -31 -22 -11 -40 -27 -40 -34 0 -8 -7 -17 -16 -20 -8
-3 -13 -10 -10 -15 3 -5 -5 -29 -19 -53 -14 -23 -25 -55 -25 -70 0 -28 -44
-78 -68 -78 -7 0 -11 -3 -9 -7 6 -10 -19 -34 -27 -26 -3 4 -6 2 -6 -3 0 -6
-10 -21 -22 -34 -13 -14 -23 -28 -23 -31 0 -4 -14 -22 -31 -41 -31 -34 -81
-131 -103 -200 -7 -21 -17 -40 -22 -44 -5 -3 -7 -10 -4 -15 4 -5 -1 -9 -10 -9
-10 0 -13 -5 -9 -12 4 -6 3 -8 -4 -4 -5 3 -13 0 -16 -6 -3 -7 -4 -2 -1 12 3
14 2 19 -1 12 -3 -6 -10 -9 -16 -6 -5 3 -8 -2 -6 -12 2 -11 10 -22 18 -27 17
-8 -28 -1 -54 9 -9 3 -16 1 -16 -5 0 -6 7 -11 16 -11 14 0 14 -3 4 -15 -7 -8
-9 -15 -5 -15 4 0 2 -7 -5 -15 -11 -13 -10 -14 5 -9 12 5 16 3 14 -5 -3 -7 -9
-13 -14 -14 -6 0 -18 -11 -28 -24 -10 -13 -25 -23 -32 -23 -9 0 -12 -6 -9 -15
4 -10 0 -15 -14 -15 -24 0 -48 -25 -32 -35 12 -7 14 -45 2 -45 -5 0 -17 -7
-28 -16 -18 -14 -18 -15 5 -4 18 9 22 9 16 0 -4 -7 -1 -16 6 -21 8 -4 15 -13
15 -19 1 -5 2 -11 4 -12 1 -2 4 -27 6 -55 3 -35 1 -53 -6 -53 -6 0 -8 -4 -5
-10 3 -5 3 -10 -2 -11 -46 -4 -85 -29 -46 -29 12 0 24 -4 27 -8 2 -4 -11 -6
-31 -4 -25 3 -34 1 -29 -7 4 -6 10 -9 14 -7 4 2 8 -8 8 -22 2 -26 1 -26 -8 -5
-11 23 -38 39 -38 23 0 -6 5 -10 10 -10 6 0 10 -5 10 -11 0 -6 7 -18 16 -27
15 -14 15 -17 0 -28 -11 -8 -13 -14 -7 -19 6 -3 14 0 17 9 5 12 10 13 32 3 32
-14 43 -27 35 -41 -4 -5 1 -7 11 -3 11 4 24 0 34 -10 16 -16 16 -16 0 -10 -10
3 -20 2 -23 -4 -4 -5 -3 -9 2 -8 26 4 34 -2 24 -18 -8 -14 -4 -24 17 -46 25
-27 26 -29 9 -42 -10 -7 -19 -22 -22 -33 -3 -16 1 -20 20 -18 15 2 22 -1 18
-10 -3 -8 -18 -11 -45 -9 -36 4 -39 3 -22 -10 18 -14 18 -14 1 -15 -10 0 -15
-5 -12 -10 4 -7 14 -5 28 5 12 8 26 15 32 15 7 0 6 -3 -1 -8 -5 -4 -16 -23
-23 -42 -8 -19 -29 -65 -47 -102 -36 -72 -51 -132 -35 -142 6 -4 9 1 7 11 -2
10 2 34 10 53 7 19 13 30 13 23 1 -6 4 -19 8 -29 3 -10 2 -15 -3 -12 -5 4 -9
-4 -9 -17 0 -13 2 -22 6 -20 3 2 4 -9 3 -25 -1 -16 4 -31 11 -34 13 -5 15 -76
2 -76 -4 0 -10 0 -13 0 -4 0 -1 7 6 15 8 10 9 15 2 15 -6 0 -9 7 -6 15 4 8 4
15 0 15 -8 0 -46 -86 -46 -104 0 -8 -8 -21 -17 -28 -17 -12 -27 -78 -13 -78 3
0 6 -9 6 -20 0 -12 -5 -19 -12 -16 -14 5 -26 -31 -13 -40 5 -3 9 -10 9 -15 0
-6 -4 -7 -10 -4 -6 3 -7 -1 -4 -9 3 -9 10 -16 15 -16 14 0 6 -23 -15 -42 -10
-10 -15 -18 -10 -18 5 0 1 -5 -9 -11 -9 -6 -15 -14 -12 -18 7 -12 -25 -114
-39 -124 -7 -6 -4 -7 7 -3 15 5 17 2 12 -17 -10 -31 -26 -46 -20 -18 6 34 -13
15 -20 -21 -11 -47 -12 -108 -3 -102 14 9 9 -13 -7 -26 -10 -9 -12 -17 -5 -30
5 -9 6 -21 2 -25 -4 -5 -2 -5 4 -2 6 4 10 18 9 32 -2 14 1 25 6 25 12 0 11
-37 -2 -62 -8 -15 -8 -19 0 -14 7 5 11 -4 11 -23 0 -19 -5 -30 -12 -29 -7 2
-13 -7 -14 -19 -1 -12 2 -20 7 -17 4 2 5 12 2 21 -4 10 -2 14 5 9 6 -3 10 -19
10 -35 -1 -15 2 -33 6 -39 3 -6 2 -13 -4 -17 -6 -4 -4 -18 6 -38 13 -29 13
-30 -1 -13 -17 22 -21 5 -5 -25 6 -11 7 -19 1 -19 -5 0 -7 -10 -3 -22 4 -16 2
-19 -9 -13 -11 7 -12 6 -2 -6 10 -12 10 -18 1 -27 -9 -9 -9 -15 -1 -23 7 -7 8
-20 4 -33 -4 -11 -7 -33 -6 -48 1 -16 -1 -28 -4 -28 -8 0 -5 -65 4 -79 3 -7 1
-10 -6 -9 -16 4 -32 -109 -18 -132 6 -11 8 -7 8 15 0 47 4 65 13 65 5 0 6 5 3
10 -3 6 -2 10 3 10 5 0 12 -11 14 -24 4 -17 1 -23 -9 -19 -8 3 -13 -2 -13 -12
0 -10 5 -15 14 -12 9 4 12 -2 10 -19 -1 -13 2 -27 7 -30 6 -3 5 -12 -2 -21 -8
-9 -9 -17 -3 -21 5 -4 9 -20 8 -37 0 -16 4 -43 9 -60 5 -16 10 -44 12 -61 1
-17 8 -42 15 -55 12 -22 12 -23 -3 -10 -22 17 -22 7 -1 -14 14 -14 21 -37 26
-90 0 -5 -1 -14 -2 -20 -4 -19 0 -36 8 -31 4 3 7 -8 6 -24 -1 -18 5 -35 17
-46 10 -9 19 -25 19 -36 0 -10 7 -18 15 -18 9 0 12 -6 8 -15 -5 -14 -7 -14
-23 0 -15 13 -17 13 -17 0 0 -8 2 -13 5 -11 6 7 52 -36 47 -44 -2 -4 12 -14
31 -23 19 -10 33 -21 30 -25 -3 -5 5 -8 17 -8 12 1 21 -4 20 -11 -2 -7 6 -10
16 -8 14 3 18 -1 14 -16 -3 -10 -8 -19 -12 -19 -13 0 -61 -51 -56 -60 7 -11
-16 -60 -28 -60 -6 0 -7 -3 -4 -7 4 -3 -1 -12 -11 -19 -24 -18 -32 -17 -25 4
5 14 3 13 -10 -3 -14 -18 -14 -21 6 -32 12 -6 25 -9 29 -7 4 3 5 -2 2 -10 -3
-9 -10 -16 -16 -16 -5 0 -6 5 -2 12 4 7 3 8 -4 4 -17 -11 -15 -24 6 -28 13 -3
11 -7 -13 -21 -16 -9 -25 -16 -19 -17 6 0 23 9 37 20 27 22 48 27 29 8 -7 -7
-12 -16 -12 -22 0 -5 6 -2 13 9 10 13 16 15 21 6 6 -9 11 -9 24 1 9 7 5 -2 -8
-19 -27 -37 -36 -43 -20 -13 6 11 7 20 3 20 -5 0 -13 -10 -18 -22 -6 -13 -18
-22 -27 -22 -9 1 -14 -4 -12 -11 3 -6 11 -12 19 -12 8 0 12 4 9 9 -3 4 6 8 19
8 16 0 26 7 30 20 3 11 11 20 18 20 7 0 10 -2 7 -6 -3 -3 -2 -20 2 -39 6 -25
4 -32 -5 -28 -8 3 -12 15 -9 31 5 26 4 26 -9 7 -8 -10 -13 -25 -10 -32 3 -7 0
-20 -7 -28 -10 -12 -7 -13 14 -9 14 2 26 0 26 -6 0 -5 -3 -10 -7 -10 -5 0 -8
-112 -8 -249 0 -146 -4 -247 -9 -243 -5 3 -6 0 -2 -6 3 -5 3 -12 -1 -15 -5 -2
-3 -3 2 -2 6 2 10 -27 11 -69 4 -245 8 -292 27 -293 11 -1 15 2 10 10 -9 14
-15 352 -6 385 3 12 10 22 15 22 6 0 7 -7 4 -15 -19 -47 -19 -50 -2 -30 10 11
15 14 11 8 -3 -7 -2 -13 3 -13 6 0 13 -8 17 -17 5 -15 4 -16 -6 -5 -14 13 -30
16 -28 5 1 -5 0 -10 -1 -13 -6 -16 -6 -99 1 -95 4 3 11 0 15 -6 4 -8 3 -9 -4
-5 -8 5 -12 -1 -12 -16 0 -17 3 -20 9 -9 7 10 9 7 8 -12 -1 -14 -5 -23 -8 -22
-9 6 3 -110 13 -116 5 -3 5 -16 0 -30 -10 -26 -9 -85 2 -139 7 -35 7 -35 -9
-10 l-15 25 6 -30 c4 -16 7 -34 8 -40 0 -5 5 -13 9 -16 4 -3 10 -17 12 -30 3
-13 9 -45 14 -72 5 -28 5 -50 0 -53 -5 -3 -6 -11 -2 -17 4 -7 6 -23 4 -36 -4
-34 19 -112 32 -104 6 4 7 1 2 -7 -4 -7 -2 -15 4 -19 6 -4 13 -24 15 -43 4
-43 47 -158 59 -158 5 0 6 8 3 18 -18 56 -34 128 -30 134 3 5 0 8 -6 8 -7 0
-10 6 -7 13 2 6 1 19 -4 28 -5 9 -9 32 -11 50 -1 19 -6 40 -12 48 -8 11 -8 13
1 8 12 -8 12 10 -1 31 -4 7 -6 16 -3 18 3 3 -1 21 -9 40 -11 27 -11 34 -2 34
10 0 9 3 -1 9 -13 8 -20 104 -10 141 2 8 -2 14 -8 13 -7 -2 -13 1 -13 6 0 5 6
12 13 14 10 4 10 6 0 6 -7 1 -13 6 -13 12 0 5 6 7 13 3 10 -6 10 -4 0 7 -7 7
-13 21 -13 31 0 10 6 18 13 18 8 0 7 3 -3 10 -9 6 -17 5 -22 -3 -6 -9 -8 -9
-8 0 0 6 4 14 9 17 10 7 2 56 -12 74 -6 8 -6 12 1 12 12 0 30 -48 26 -72 -1
-10 2 -18 7 -18 5 0 10 6 10 13 1 6 3 28 5 47 2 19 4 47 5 63 2 28 14 37 21
15 3 -8 7 -6 11 5 3 9 1 19 -5 23 -7 4 -8 3 -4 -4 5 -8 1 -10 -10 -5 -15 5
-15 7 0 15 9 5 13 15 9 21 -3 7 3 4 15 -6 16 -15 19 -24 12 -43 -8 -19 -6 -22
7 -17 11 4 14 3 9 -5 -4 -7 -2 -12 4 -12 7 0 10 -6 7 -13 -3 -8 3 -20 14 -28
10 -7 19 -19 19 -26 0 -7 5 -13 11 -13 5 0 7 -5 3 -12 -4 -7 -3 -8 5 -4 9 6 7
16 -8 42 -14 23 -17 36 -9 40 7 4 8 3 4 -4 -4 -7 -2 -12 3 -12 6 0 11 -7 11
-15 0 -8 5 -15 10 -15 6 0 10 -6 10 -14 0 -8 12 -24 26 -35 14 -11 23 -24 20
-29 -3 -5 1 -9 9 -9 12 0 12 5 -1 29 -9 18 -11 28 -4 28 6 0 8 4 5 10 -3 5 -2
17 3 26 6 11 11 13 16 5 4 -6 2 -11 -3 -11 -6 0 -11 -5 -11 -11 0 -5 5 -7 12
-3 6 4 8 3 4 -4 -3 -6 -2 -13 4 -17 5 -3 10 -1 10 6 0 7 2 10 5 7 3 -3 3 -13
-1 -22 -6 -15 -7 -15 -21 1 -10 13 -10 10 2 -15 14 -29 14 -33 0 -38 -8 -3
-12 -10 -9 -16 3 -5 12 -1 19 9 7 10 11 21 9 25 -2 4 1 10 7 14 7 4 9 3 5 -4
-3 -6 -2 -13 3 -17 6 -3 7 -13 4 -22 -4 -11 -3 -14 6 -9 8 6 11 -2 8 -28 -2
-20 -1 -36 4 -36 14 0 70 -92 65 -106 -3 -8 -1 -14 4 -14 6 0 9 -3 9 -8 -1 -4
0 -10 1 -14 1 -5 3 -11 5 -15 1 -5 7 -21 13 -36 7 -16 12 -34 12 -40 0 -7 8
-23 17 -36 9 -14 11 -21 5 -17 -8 5 -10 2 -6 -8 3 -9 9 -14 13 -12 3 2 7 -10
8 -27 1 -17 7 -34 14 -37 6 -4 10 -11 9 -16 -1 -9 11 -52 20 -69 1 -3 3 -9 4
-14 0 -5 4 -13 9 -17 4 -4 7 -18 7 -31 0 -13 5 -23 11 -23 5 0 7 -5 4 -10 -3
-6 0 -13 8 -16 9 -3 14 -16 12 -30 -1 -15 3 -24 12 -24 8 0 12 -4 8 -9 -3 -5
0 -15 7 -23 7 -7 14 -20 16 -28 2 -8 7 -17 10 -20 4 -3 8 -12 10 -20 2 -8 8
-17 13 -18 5 -2 7 -8 3 -13 -3 -5 0 -9 5 -9 6 0 10 -6 9 -12 -2 -7 3 -12 10
-10 8 1 11 -2 7 -8 -4 -6 1 -23 11 -38 22 -33 26 -52 11 -53 -7 0 -3 -4 8 -9
17 -7 17 -9 3 -9 -12 -1 -16 -7 -12 -18 5 -15 4 -15 -4 -3 -6 8 -8 18 -6 22 3
4 0 8 -5 8 -9 0 -15 -19 -13 -41 1 -3 -5 -6 -13 -6 -8 0 -12 4 -9 8 2 4 0 10
-6 14 -5 3 -10 -1 -10 -9 0 -10 -6 -13 -17 -9 -10 4 -14 2 -10 -4 3 -5 0 -10
-7 -10 -8 0 -12 7 -9 16 3 12 2 11 -7 -2 -6 -9 -16 -14 -22 -11 -8 5 -9 1 -4
-11 5 -14 4 -16 -7 -7 -8 7 -17 8 -21 4 -8 -7 -13 -8 -42 -11 -8 0 -12 -5 -9
-11 6 -10 -7 -14 -34 -11 -7 2 -10 -2 -7 -7 3 -5 -7 -7 -22 -5 -22 4 -24 2
-12 -7 12 -9 8 -11 -17 -6 -24 4 -33 2 -33 -9 0 -7 -4 -16 -9 -20 -6 -3 -8 4
-6 15 4 18 2 19 -19 5 -12 -8 -26 -12 -30 -8 -4 4 -4 1 -1 -8 4 -10 -1 -15
-17 -16 -19 -2 -20 0 -8 8 12 9 12 10 -3 5 -10 -3 -21 -6 -23 -6 -3 0 -2 -5 2
-12 5 -7 3 -8 -6 -3 -21 13 -60 14 -57 2 1 -7 -6 -11 -15 -9 -10 2 -18 -1 -18
-7 0 -5 -10 -7 -22 -3 -16 4 -19 2 -13 -9 6 -11 5 -11 -5 -2 -13 12 -43 7 -35
-6 2 -4 -9 -6 -24 -3 -21 3 -33 -2 -46 -20 -13 -17 -16 -18 -11 -4 5 15 4 17
-7 8 -8 -7 -17 -9 -20 -5 -4 3 -7 2 -7 -4 0 -6 -7 -14 -16 -17 -8 -3 -12 -2
-9 4 3 6 1 10 -4 10 -6 0 -11 -4 -11 -9 0 -5 -7 -12 -16 -15 -10 -4 -13 -2 -8
7 6 9 4 9 -8 -1 -13 -10 -17 -10 -22 0 -3 7 -4 3 -2 -10 2 -12 0 -20 -5 -16
-17 10 -50 13 -44 3 4 -5 -3 -9 -14 -9 -30 0 -52 -11 -44 -23 3 -6 1 -7 -5 -3
-6 4 -21 2 -32 -4 -13 -7 -20 -7 -20 0 0 5 5 10 12 10 6 0 8 3 5 6 -4 4 -13 2
-20 -4 -8 -7 -18 -8 -22 -4 -5 4 -5 1 0 -7 6 -11 3 -13 -13 -9 -13 4 -23 0
-26 -9 -4 -9 -11 -11 -18 -6 -20 12 -31 11 -62 -10 l-28 -20 7 24 c7 22 7 22
-9 6 -18 -17 -38 -23 -34 -9 2 4 -1 8 -6 10 -6 1 -11 -4 -12 -13 -1 -8 2 -13
6 -10 5 3 12 0 16 -6 4 -8 9 -7 16 2 8 11 9 11 5 -1 -4 -15 -24 -21 -42 -11
-5 3 -16 6 -24 8 -8 1 -18 8 -22 15 -7 10 -9 9 -9 -4 0 -11 -7 -18 -17 -17
-11 0 -13 3 -5 6 6 2 12 11 12 18 0 8 7 18 15 22 13 8 13 11 -3 28 -11 11 -38
31 -60 45 -23 14 -44 34 -48 44 -10 30 -132 143 -178 166 -71 34 -91 28 -119
-32 -27 -57 -34 -78 -41 -121 -3 -15 -8 -37 -11 -48 -4 -12 -9 -33 -11 -47 -7
-42 -11 -56 -18 -74 -4 -9 -8 -22 -10 -30 -4 -29 -18 -37 -67 -36 -28 0 -56
-5 -62 -11 -6 -6 -23 -11 -38 -11 -15 0 -35 -7 -44 -16 -15 -16 -19 -14 -53
18 -76 72 -98 91 -156 131 -97 70 -108 75 -129 71 -41 -8 -119 -121 -140 -204
-13 -52 -15 -159 -4 -206 5 -21 10 -79 8 -102 -1 -6 -7 -11 -13 -10 -8 2 -13
-6 -12 -18 1 -11 -5 -21 -11 -21 -7 0 -11 7 -8 16 2 9 -2 5 -10 -9 -9 -14 -18
-23 -22 -22 -4 2 -10 0 -13 -4 -4 -4 -1 -4 7 1 9 5 12 4 7 -3 -4 -7 -17 -12
-29 -12 -16 0 -18 -3 -9 -9 10 -6 4 -10 -18 -14 -17 -4 -29 -11 -25 -17 3 -6
0 -7 -9 -4 -12 4 -16 0 -16 -16 0 -18 -3 -20 -13 -11 -17 14 -30 2 -16 -15 12
-14 -7 -14 -30 0 -9 6 -12 5 -8 -1 4 -6 0 -14 -9 -17 -8 -3 -13 -10 -9 -15 3
-5 0 -13 -6 -17 -8 -4 -9 -3 -5 4 4 7 2 12 -4 12 -6 0 -13 -7 -16 -15 -4 -8
-15 -15 -26 -15 -10 0 -17 -4 -13 -10 3 -5 13 -7 23 -4 14 5 14 4 2 -4 -8 -6
-17 -9 -22 -6 -15 10 -45 -19 -41 -40 4 -17 3 -18 -6 -6 -10 14 -16 7 -12 -13
1 -5 -2 -6 -7 -3 -5 3 -16 -4 -25 -15 -9 -10 -14 -19 -10 -19 3 0 -4 -8 -15
-19 -12 -10 -19 -21 -15 -25 4 -3 -3 -15 -15 -26 -12 -12 -22 -28 -22 -36 0
-9 -5 -12 -12 -8 -10 6 -10 4 0 -8 10 -13 10 -18 1 -24 -8 -5 -10 -3 -4 7 4 8
-3 3 -16 -11 -28 -28 -29 -40 -2 -20 10 8 6 1 -9 -13 -18 -18 -25 -33 -21 -44
5 -12 3 -14 -8 -8 -12 7 -12 6 -1 -7 11 -14 10 -18 -6 -27 -11 -6 -23 -7 -28
-3 -5 4 -2 -2 6 -12 8 -11 10 -17 4 -13 -7 4 -15 -1 -18 -10 -4 -9 -2 -20 5
-23 7 -5 4 -9 -8 -12 -11 -3 -19 -15 -20 -28 -1 -13 -8 -27 -15 -31 -10 -7
-10 -9 0 -9 17 0 15 -27 -4 -38 -9 -5 -15 -12 -15 -15 3 -21 0 -27 -10 -21 -8
5 -8 1 0 -14 8 -15 7 -23 -5 -33 -8 -7 -13 -21 -11 -31 3 -10 1 -15 -4 -12 -6
3 -7 -7 -4 -25 3 -16 1 -32 -5 -36 -5 -3 -8 -11 -6 -18 1 -7 1 -9 -1 -4 -3 4
-9 7 -14 7 -11 0 -7 -23 6 -32 5 -4 1 -15 -10 -28 -19 -21 -19 -21 1 -15 17 6
18 5 2 -7 -12 -11 -14 -18 -6 -32 8 -15 8 -17 -2 -11 -10 6 -12 4 -7 -7 3 -9
0 -21 -6 -28 -9 -10 -9 -14 1 -17 15 -6 16 -29 0 -39 -7 -5 -8 -3 -3 7 8 12 6
12 -8 0 -20 -16 -22 -22 -6 -19 6 2 14 -3 17 -11 3 -8 0 -11 -7 -7 -6 4 -11 3
-11 -3 0 -5 5 -13 11 -16 6 -5 4 -12 -8 -22 -10 -8 -12 -12 -6 -8 7 3 13 2 13
-4 0 -5 -6 -12 -12 -14 -10 -4 -10 -6 0 -6 6 -1 12 -6 12 -12 0 -5 -6 -7 -12
-3 -8 5 -7 0 2 -11 9 -11 10 -16 3 -11 -14 8 -19 -25 -6 -38 11 -10 12 -37 2
-30 -5 3 -9 0 -9 -5 0 -6 4 -11 9 -11 5 0 12 -7 15 -16 5 -13 4 -14 -7 -6 -10
9 -14 8 -14 -3 0 -8 4 -15 9 -15 11 0 6 -23 -7 -32 -6 -5 -5 -8 3 -8 6 0 12
-5 12 -11 0 -5 -5 -7 -11 -3 -6 3 -3 -6 7 -22 14 -21 14 -26 3 -17 -12 10 -15
8 -15 -8 0 -10 6 -19 13 -19 7 0 13 -5 13 -11 0 -6 -7 -8 -17 -5 -14 6 -14 4
2 -14 15 -17 16 -23 6 -29 -9 -6 -10 -11 -2 -15 15 -10 14 -29 -1 -20 -7 4 -4
-3 7 -16 11 -13 14 -20 7 -16 -9 5 -12 -1 -10 -23 1 -17 7 -31 13 -31 5 0 3
-5 -5 -10 -13 -9 -13 -10 0 -10 13 0 13 -1 0 -10 -12 -8 -12 -10 -1 -10 10 0
11 -3 2 -13 -7 -9 -8 -24 -1 -45 6 -23 5 -32 -3 -32 -8 0 -8 -3 -2 -8 6 -4 10
-46 10 -95 0 -65 3 -86 12 -82 10 3 10 0 0 -16 -10 -16 -9 -21 3 -29 13 -9 7
-14 -12 -11 -4 0 -5 -6 -2 -14 4 -8 11 -15 18 -16 6 0 2 -4 -9 -9 -11 -5 -15
-9 -8 -9 6 -1 10 -10 8 -21 -2 -11 0 -20 6 -20 5 0 9 -5 9 -11 0 -5 -6 -7 -12
-3 -8 5 -8 1 1 -10 13 -15 13 -19 0 -27 -8 -5 -9 -9 -3 -9 16 0 27 -31 15 -43
-10 -10 -3 -40 8 -33 4 3 7 -4 7 -15 0 -12 -4 -15 -10 -9 -6 6 -15 10 -21 10
-5 0 -3 -5 5 -11 12 -8 12 -12 2 -16 -10 -4 -9 -8 5 -19 15 -11 692 -13 4303
-13 2357 0 4279 3 4273 6 -7 2 -13 9 -13 14 0 6 6 7 13 3 6 -4 4 2 -7 14 -18
21 -18 21 5 17 23 -4 23 -4 5 10 -11 8 -16 15 -12 15 5 0 3 7 -4 15 -7 8 -9
15 -5 15 4 0 14 -8 22 -17 8 -10 12 -12 8 -5 -3 6 -1 12 5 12 7 0 5 6 -4 15
-8 9 -12 23 -9 32 5 12 3 14 -7 8 -9 -5 -11 -4 -6 4 6 9 11 9 22 0 8 -6 17 -9
20 -6 10 10 11 137 1 137 -6 0 -6 5 0 12 13 16 13 48 0 48 -6 0 -6 5 0 13 13
15 13 47 1 47 -5 0 -6 6 -1 13 12 19 14 47 3 47 -6 0 -10 8 -10 18 0 14 2 15
10 2 8 -13 10 -12 10 3 0 9 -5 17 -11 17 -8 0 -7 5 1 15 11 13 10 18 -5 29
-14 10 -15 15 -5 21 9 6 11 4 5 -6 -7 -12 -6 -12 6 0 11 10 11 15 1 18 -6 3
-9 10 -5 16 12 19 12 81 -1 96 -8 12 -8 13 2 7 9 -6 11 3 8 36 -5 60 -17 108
-27 108 -5 0 -6 -8 -3 -17 5 -15 4 -15 -5 -3 -7 11 -5 20 7 34 9 11 12 16 6
13 -15 -8 -39 19 -25 27 5 4 7 18 5 33 -6 33 -13 45 -23 39 -4 -3 -13 -1 -20
3 -10 6 -9 10 4 14 10 5 14 3 9 -5 -4 -7 -3 -8 5 -4 8 5 9 12 2 19 -5 7 -9 15
-10 20 0 17 -35 87 -44 87 -4 0 -6 4 -2 10 3 5 -3 18 -15 30 -11 11 -21 23
-22 28 -2 4 -6 6 -9 5 -4 -1 -6 5 -5 15 0 9 -5 16 -12 14 -6 -1 -11 1 -11 5 5
30 -48 92 -74 88 -9 -2 -15 1 -11 6 3 5 10 6 16 3 8 -5 9 -1 5 10 -4 10 -7 21
-7 24 0 4 -8 -5 -17 -18 -10 -14 -16 -29 -15 -35 2 -5 0 -6 -4 -2 -11 10 -14
38 -4 32 4 -3 10 2 14 10 6 18 -60 89 -75 79 -5 -3 -9 -2 -8 3 4 22 -3 33 -19
33 -9 0 -23 9 -30 20 -7 12 -24 20 -40 21 -24 0 -25 1 -7 9 19 8 19 9 -3 9
-15 1 -21 5 -16 13 4 6 3 8 -4 4 -6 -3 -15 2 -21 11 -9 16 -12 16 -21 3 -8
-12 -10 -12 -10 -1 0 11 -3 11 -16 1 -9 -8 -14 -9 -12 -2 2 6 -6 18 -17 27
-19 15 -19 16 5 4 33 -17 50 -19 50 -8 0 6 -8 9 -17 7 -11 -2 -17 2 -15 10 1
8 -2 11 -7 8 -12 -8 -42 4 -36 14 10 16 -47 51 -76 46 -18 -3 -28 0 -26 7 1 7
-3 11 -10 10 -7 -2 -10 4 -7 12 4 9 0 15 -10 15 -9 0 -16 5 -16 11 0 5 4 7 10
4 6 -4 7 1 3 11 -4 11 -8 13 -11 6 -2 -7 -8 -12 -14 -12 -6 0 -8 7 -5 15 4 9
-11 25 -43 46 -28 18 -50 37 -50 43 -1 6 -8 -1 -16 -16 -18 -34 -27 -37 -15
-5 7 19 5 28 -10 40 -10 9 -19 13 -19 7 0 -5 8 -14 18 -19 10 -6 12 -11 4 -11
-8 0 -10 -5 -6 -12 4 -8 3 -10 -2 -5 -5 5 -9 12 -9 15 -1 14 -27 54 -32 49 -2
-3 -14 4 -25 15 l-21 21 22 18 c33 27 20 50 -52 92 -34 21 -76 49 -92 65 -28
26 -30 32 -33 117 -2 58 -8 98 -18 112 -18 28 -67 50 -130 56 -105 12 -121 24
-221 172 -27 40 -89 104 -153 158 -33 28 -33 28 -84 12 -28 -8 -58 -21 -66
-28 -27 -21 -90 -104 -90 -116 0 -17 -90 -100 -116 -107 -11 -3 -27 -6 -36 -7
-17 -3 -49 -32 -43 -39 3 -3 -2 -5 -10 -5 -11 0 -12 4 -4 13 16 19 1 36 -24
28 -20 -6 -20 -5 -8 10 12 14 12 16 -3 10 -9 -3 -16 -10 -16 -15 0 -5 -4 -9
-8 -9 -5 0 -9 7 -9 15 0 8 4 12 8 9 4 -2 10 0 14 6 5 9 -31 16 -58 11 -5 -1
-6 3 -2 8 3 6 13 8 23 5 13 -5 14 -4 3 4 -7 5 -22 7 -33 4 -12 -3 -24 3 -34
16 -8 12 -21 19 -29 16 -8 -4 -18 1 -21 10 -3 9 -14 16 -24 16 -10 0 -20 7
-23 15 -4 8 -15 12 -27 10 -13 -2 -20 1 -20 11 0 8 -4 12 -10 9 -5 -3 -10 -2
-10 3 0 6 -7 13 -16 16 -8 3 -12 2 -9 -3 3 -5 1 -13 -5 -16 -6 -4 -9 -1 -8 7
2 7 -4 12 -12 10 -11 -2 -10 1 3 12 17 13 15 14 -17 11 -20 -2 -36 1 -36 7 0
6 -8 7 -17 3 -14 -5 -15 -3 -7 5 9 9 18 9 35 -1 22 -11 23 -11 10 5 -10 12
-24 16 -43 14 -16 -3 -32 0 -35 5 -3 6 -1 7 5 3 7 -4 12 -2 12 3 0 6 -9 11
-20 11 -11 0 -20 -5 -20 -12 0 -6 -3 -8 -6 -5 -4 4 -1 13 6 22 7 9 10 18 6 22
-3 3 -6 1 -6 -6 0 -7 -5 -9 -10 -6 -6 4 -7 11 -4 17 4 6 2 8 -4 4 -5 -3 -12
-3 -15 1 -2 5 -2 2 -1 -4 5 -19 -13 -16 -20 3 -3 8 -10 13 -15 10 -5 -4 -12 0
-14 6 -4 10 -8 10 -15 -1 -8 -11 -12 -9 -23 10 -11 22 -11 23 4 10 10 -7 17
-9 17 -4 0 13 -42 31 -58 26 -6 -3 -9 -10 -6 -15 4 -7 2 -8 -5 -4 -9 6 -9 11
0 22 10 12 9 13 -6 8 -10 -4 -20 -1 -25 6 -7 11 -12 11 -26 -1 -11 -9 -15 -9
-10 -1 4 7 2 12 -4 12 -6 0 -8 5 -5 10 3 6 1 10 -4 10 -6 0 -11 -4 -11 -10 0
-5 -5 -10 -11 -10 -8 0 -8 4 0 14 8 10 9 16 1 21 -5 3 -10 2 -10 -3 0 -5 -7
-9 -14 -9 -8 0 -15 3 -14 6 1 15 -15 51 -23 51 -5 0 -9 6 -9 13 1 6 9 2 19
-10 10 -12 22 -19 25 -15 4 3 4 -1 0 -11 -3 -9 -2 -17 4 -17 10 0 24 41 17 49
-3 2 -5 -1 -5 -7 0 -6 -7 -9 -15 -6 -8 4 -12 10 -9 15 3 5 0 8 -8 7 -7 -2 -12
2 -11 9 2 7 -4 10 -12 7 -8 -4 -15 -11 -15 -17 0 -6 -3 -7 -6 -4 -4 4 -1 13 6
22 7 9 10 18 6 22 -3 3 -6 1 -6 -5 0 -6 -7 -9 -15 -6 -8 4 -15 13 -15 21 0 10
-6 12 -20 8 -11 -3 -20 -2 -20 4 0 5 -3 17 -6 25 -5 12 -2 15 12 10 15 -5 16
-4 4 4 -17 13 -33 5 -27 -12 3 -7 0 -13 -7 -13 -11 0 -16 31 -6 33 23 4 51 28
46 40 -3 8 1 14 10 14 9 0 14 6 11 13 -2 6 8 23 22 36 14 13 20 20 12 16 -9
-6 -12 -4 -7 3 4 7 13 12 21 12 8 0 17 4 20 10 4 6 -1 7 -12 4 -16 -5 -16 -4
1 10 11 9 24 16 30 16 5 0 6 3 3 7 -4 3 1 12 11 20 9 8 11 12 5 8 -7 -3 -13
-2 -13 4 0 5 9 13 20 16 11 3 20 11 20 16 0 6 -5 7 -12 3 -6 -4 -3 4 8 18 10
14 22 24 27 21 4 -2 7 -1 6 4 -4 22 2 34 14 27 7 -5 7 -2 -2 10 -12 15 -12 17
0 14 8 -2 13 4 13 14 -1 10 2 15 7 12 5 -3 9 2 9 10 0 9 5 16 10 16 6 0 10 7
10 15 0 8 4 15 9 15 6 0 8 9 6 19 -2 11 3 22 11 25 9 3 13 10 10 15 -4 5 0 16
8 23 14 15 31 58 28 71 -1 4 3 7 9 7 6 0 9 9 6 20 -3 11 -1 18 4 14 5 -3 9 1
9 9 0 8 6 20 14 26 8 7 12 21 8 33 -3 13 -1 19 5 15 11 -7 28 22 18 31 -3 3
-5 0 -5 -6 0 -7 -5 -12 -12 -12 -6 0 -2 10 9 23 11 12 20 32 18 44 -1 12 2 20
6 18 9 -6 33 24 25 32 -3 3 -6 1 -6 -6 0 -7 -4 -10 -10 -6 -5 3 -1 14 10 25
11 11 20 29 20 40 0 11 5 20 11 20 5 0 7 5 3 11 -3 6 0 15 7 20 10 6 11 9 2 9
-8 0 -5 8 7 20 11 11 17 26 14 35 -4 8 -1 15 5 15 6 0 11 7 11 15 0 8 4 15 10
15 5 0 7 7 4 15 -4 8 -1 15 5 15 6 0 8 6 5 14 -3 8 0 17 5 21 6 3 9 11 6 16
-4 5 -1 9 5 9 6 0 8 5 5 10 -3 6 -1 10 4 10 6 0 11 9 11 21 0 13 4 18 13 13 9
-5 9 -4 0 6 -9 10 -7 17 7 32 10 11 16 26 13 34 -3 8 1 14 8 14 7 0 9 3 6 7
-4 3 -1 13 6 21 10 13 9 14 -2 7 -10 -6 -12 -4 -7 4 5 7 15 10 23 6 13 -4 14
-3 3 10 -7 9 -10 18 -6 22 3 3 6 1 6 -5 0 -7 5 -12 11 -12 5 0 7 6 3 13 -5 8
-2 8 9 -2 9 -7 17 -9 17 -4 0 5 7 10 15 11 8 1 22 3 30 4 8 1 12 5 9 10 -3 4
4 8 15 8 11 0 26 7 35 15 8 8 27 20 41 25 18 7 25 15 21 26 -3 8 -2 13 3 10
14 -9 43 32 45 63 0 16 4 27 8 25 3 -2 9 4 11 13 4 17 5 17 6 1 1 -18 31 -14
31 4 0 5 -6 6 -12 2 -9 -5 -9 -2 1 9 15 18 26 23 16 7 -3 -5 -3 -10 2 -10 4 0
9 -15 10 -33 4 -50 6 -57 15 -57 4 0 7 -3 6 -7 0 -5 2 -15 5 -23 14 -34 56
-197 57 -225 3 -45 1 -49 -17 -34 -16 13 -17 12 -4 -3 7 -10 17 -16 21 -13 9
6 23 -25 15 -33 -3 -3 -5 0 -5 6 0 7 -4 12 -9 12 -5 0 -7 -9 -4 -20 3 -11 12
-20 21 -20 8 0 13 -3 10 -6 -4 -3 -2 -19 3 -36 8 -29 18 -114 24 -198 1 -19
-1 -39 -4 -45 -3 -5 -6 -12 -7 -15 -11 -38 -18 -50 -27 -50 -6 0 -7 -3 -4 -7
10 -10 -14 -34 -27 -26 -6 4 -6 0 2 -9 11 -13 9 -17 -12 -22 -14 -3 -28 -15
-31 -26 -3 -11 -11 -20 -16 -20 -6 0 -8 -4 -5 -8 2 -4 -9 -17 -25 -27 -16 -11
-29 -23 -29 -27 0 -4 -15 -24 -32 -45 -18 -21 -24 -31 -13 -23 11 8 26 23 33
33 27 36 62 70 62 60 0 -6 -7 -16 -15 -23 -8 -7 -15 -24 -15 -38 0 -14 -3 -23
-6 -19 -3 3 -16 -3 -27 -14 -16 -14 -18 -22 -9 -31 9 -9 13 -7 18 5 3 9 11 14
17 10 5 -3 7 -1 3 5 -3 6 3 17 15 25 15 11 17 16 7 20 -10 3 -7 10 8 27 l22
22 12 -22 c10 -18 9 -25 -7 -43 -11 -12 -29 -33 -41 -46 -12 -13 -18 -29 -15
-35 4 -6 -1 -5 -10 2 -14 12 -16 11 -12 -7 5 -25 -14 -39 -26 -20 -6 10 -9 11
-9 2 0 -21 4 -28 14 -25 5 2 4 -4 -4 -13 -10 -12 -15 -13 -28 -3 -13 11 -14
10 -4 -9 10 -18 9 -24 -8 -36 -11 -7 -17 -16 -14 -20 3 -3 -3 -11 -14 -18 -11
-7 -18 -19 -15 -26 3 -7 -2 -13 -10 -13 -10 0 -13 -7 -10 -20 3 -11 1 -20 -3
-20 -5 0 -15 -9 -22 -21 -12 -19 -12 -19 17 2 17 13 31 31 31 41 0 11 3 17 8
15 4 -3 14 2 22 11 13 14 12 15 -3 9 -33 -13 -16 11 86 115 37 38 67 75 67 83
0 7 4 15 8 17 5 2 23 25 41 51 18 27 34 47 36 45 7 -8 -8 -67 -16 -62 -5 3 -6
-2 -3 -10 3 -9 10 -14 14 -11 8 5 36 96 32 108 -1 4 3 7 9 7 5 0 7 5 4 10 -10
16 5 51 18 43 7 -4 5 2 -3 12 -8 10 -10 16 -4 12 7 -4 16 10 24 41 6 26 14 54
17 62 25 74 15 406 -13 452 -3 4 -1 8 5 8 5 0 9 13 9 30 -1 16 -5 27 -10 24
-4 -3 -8 1 -9 8 0 7 -2 21 -5 31 -2 9 -6 25 -8 35 -3 9 -5 18 -6 20 -2 1 -3 5
-4 10 -1 4 -16 52 -33 107 -17 55 -34 115 -38 133 -4 18 -10 30 -14 27 -5 -2
-7 8 -5 22 1 15 -2 35 -7 46 -6 10 -14 39 -18 65 -5 26 -12 56 -16 66 -6 13
-5 17 2 13 6 -4 2 11 -9 32 -11 22 -20 57 -21 79 -1 23 -5 44 -9 48 -4 3 -3
15 3 25 7 13 6 19 -1 19 -6 0 -8 5 -5 10 3 6 14 10 23 10 15 0 15 -2 2 -10 -8
-5 -11 -10 -7 -10 4 0 3 -9 -3 -19 -8 -15 -7 -22 5 -28 9 -5 16 -27 18 -56 2
-26 7 -50 10 -54 6 -6 11 11 8 29 0 3 -3 40 -5 82 -3 41 -12 89 -21 105 -8 17
-11 32 -6 36 11 6 11 65 0 65 -4 0 -6 -13 -4 -29 2 -18 -2 -34 -11 -41 -9 -8
-14 -9 -14 -2 0 6 5 14 11 17 7 5 4 15 -6 32 -10 14 -12 22 -6 19 6 -4 14 0
17 8 3 9 10 14 14 11 5 -3 12 0 16 6 4 8 3 9 -4 5 -7 -4 -12 -2 -12 3 0 6 4
11 8 11 4 0 8 10 9 23 1 17 -3 13 -18 -15 -21 -42 -26 -45 -26 -23 0 8 5 15
10 15 5 0 6 7 3 16 -3 8 -2 13 2 11 4 -2 15 4 25 15 9 10 13 18 7 18 -5 0 -10
8 -10 18 0 14 2 15 10 2 5 -8 10 -10 10 -4 0 5 -6 16 -12 23 -11 11 -9 12 8 7
24 -7 43 10 39 37 -3 15 0 15 28 -4 31 -20 32 -20 9 0 -15 13 -21 25 -15 33 4
7 9 24 10 38 3 55 41 163 53 155 5 -3 6 5 2 17 -3 13 -1 19 5 15 6 -4 16 0 22
7 10 12 9 14 -5 12 -9 -1 -25 -13 -35 -27 l-18 -24 3 30 c2 17 4 33 5 38 0 4
6 7 12 7 5 0 7 -6 3 -12 -4 -8 -3 -10 2 -5 5 5 9 12 9 15 0 4 4 13 9 20 5 8 3
18 -4 25 -6 7 -11 8 -10 2 4 -21 0 -35 -11 -35 -7 0 -8 7 -4 18 6 15 11 32 14
52 1 3 6 -2 11 -10 8 -13 10 -13 10 2 0 9 -4 20 -10 23 -15 9 -12 25 6 25 8 0
13 4 10 9 -3 5 1 12 10 15 8 3 13 10 9 15 -3 5 0 13 6 17 6 3 18 22 25 41 8
19 30 55 47 81 29 41 70 131 68 147 -1 3 5 18 13 34 9 17 11 32 6 37 -6 6 -4
27 4 54 7 25 11 60 9 78 -3 23 0 34 12 38 13 5 11 11 -12 33 -30 28 -40 51
-22 51 6 0 9 8 7 18 -5 17 15 46 24 36 10 -9 4 32 -6 45 -9 12 -8 13 6 8 10
-3 20 -2 22 2 9 15 -6 21 -25 10 -13 -7 -25 -7 -37 0 -9 6 -12 11 -5 11 7 0
10 12 7 35 -3 22 0 35 7 35 6 0 9 7 5 15 -3 9 0 15 10 15 8 0 12 5 9 10 -3 6
0 10 9 10 8 0 13 -7 11 -17 -2 -10 -4 -22 -4 -26 -1 -4 -11 -12 -23 -17 -13
-5 -17 -9 -10 -9 13 -1 17 -31 4 -31 -5 0 -9 -7 -9 -16 0 -14 2 -15 11 -2 6 8
16 16 21 16 6 1 10 10 11 20 1 10 6 27 11 37 6 11 8 26 6 33 -3 7 3 23 13 35
16 19 17 20 2 8 -10 -7 -18 -10 -18 -5 0 5 -5 2 -10 -6 -7 -10 -10 -11 -10 -2
0 7 7 15 15 18 8 4 13 10 10 14 -3 5 0 12 5 15 8 5 5 14 -7 28 -16 19 -16 20
0 8 13 -10 17 -10 17 -1 0 7 7 10 16 6 8 -3 12 -2 9 4 -3 6 -1 10 5 10 7 0 10
6 7 13 -3 7 1 21 9 32 12 16 11 22 -8 42 -17 18 -18 23 -6 28 13 5 15 24 9 78
-1 4 -5 7 -10 7 -5 0 -8 -18 -6 -41 2 -27 0 -39 -8 -36 -7 2 -12 9 -12 16 0 7
-7 18 -16 24 -16 12 -17 25 -4 62 7 18 6 18 -9 -2 -24 -32 -25 -67 -2 -68 12
0 20 -8 23 -23 2 -14 -1 -21 -7 -17 -5 3 -10 1 -10 -5 0 -7 7 -9 16 -6 12 5
15 2 10 -10 -4 -12 -2 -15 9 -11 18 7 32 -13 16 -23 -7 -4 -11 -11 -10 -16 1
-5 1 -18 0 -28 -1 -19 -1 -19 -22 0 -14 12 -19 27 -17 45 3 21 1 26 -11 21 -9
-3 -13 -1 -8 3 4 5 -1 17 -10 27 -15 16 -15 18 -1 13 9 -4 19 -1 23 5 3 6 3
10 -2 9 -17 -3 -36 1 -30 7 3 3 -1 24 -9 46 -7 22 -11 45 -8 50 4 6 0 15 -7
20 -11 8 -10 9 3 5 12 -4 16 0 15 14 -1 22 -13 25 -20 7 -4 -9 -6 -8 -6 3 -1
8 5 21 12 28 10 11 10 13 0 7 -7 -4 -13 -3 -13 3 0 5 6 12 13 14 7 3 5 6 -5 6
-10 1 -18 6 -18 12 0 5 6 7 13 3 9 -6 9 -5 0 8 -7 8 -10 18 -6 22 4 4 0 4 -8
1 -12 -5 -16 0 -14 17 1 13 3 23 4 23 8 0 8 42 0 54 -8 13 -9 11 -6 -6 3 -13
1 -23 -3 -23 -8 0 -25 41 -21 49 2 2 -1 7 -6 10 -19 14 -33 50 -21 57 7 5 8 2
3 -7 -8 -12 -6 -12 8 0 9 7 17 19 17 25 0 8 -2 8 -8 0 -4 -6 -15 -10 -25 -8
-25 3 -35 14 -14 14 9 0 17 5 17 10 0 10 -14 14 -37 11 -7 -1 -13 3 -13 8 0 5
9 8 19 6 29 -5 19 27 -12 43 -15 7 -27 20 -27 28 0 7 -4 14 -9 14 -5 0 -11 9
-14 21 -3 12 -10 18 -16 14 -6 -3 -11 -1 -11 4 0 6 7 11 15 11 22 0 30 -4 27
-13 -1 -5 2 -6 8 -2 12 7 66 -45 62 -60 -2 -5 0 -6 4 -2 4 4 13 -2 20 -14 7
-14 14 -18 18 -10 4 6 2 11 -5 11 -8 0 -8 4 1 15 11 13 10 14 -3 9 -10 -3 -20
2 -27 16 -16 30 -48 60 -63 60 -7 0 -19 6 -26 13 -11 10 -13 10 -7 0 4 -8 2
-13 -7 -13 -8 0 -13 10 -13 22 1 13 -4 23 -10 23 -6 0 -18 8 -28 18 -10 9 -22
17 -27 17 -5 0 -9 7 -9 17 0 9 -3 13 -7 10 -3 -4 -12 1 -20 11 -8 9 -11 11 -7
3 5 -10 3 -12 -5 -7 -7 5 -10 14 -7 21 3 8 -2 11 -15 8 -11 -3 -19 0 -19 6 0
7 5 9 12 5 6 -4 8 -3 5 4 -4 5 -16 8 -27 5 -14 -4 -20 -1 -18 8 2 8 -3 13 -10
11 -12 -2 -23 5 -62 40 -10 9 -22 13 -26 10 -4 -4 -4 -1 0 6 4 7 2 12 -5 12
-7 0 -10 3 -6 6 3 3 28 -6 56 -20 28 -14 51 -22 51 -18 0 4 5 0 10 -8 7 -11
10 -11 10 -2 0 8 5 10 13 6 9 -6 9 -4 -1 8 -7 9 -24 15 -39 13 -25 -3 -26 -2
-8 11 17 12 17 14 2 14 -9 0 -17 -4 -17 -9 0 -5 -11 -4 -23 2 -17 8 -23 19
-22 36 1 15 -5 32 -12 39 -14 14 -8 36 7 27 5 -3 11 4 15 15 5 17 9 18 28 8
12 -6 23 -11 25 -10 10 7 14 0 4 -10 -8 -8 -15 -8 -29 2 -17 13 -17 13 -1 -5
15 -16 19 -16 34 -5 17 15 29 18 81 22 17 1 31 7 30 12 -1 6 9 12 23 14 14 2
30 8 35 14 7 8 6 9 -3 3 -11 -6 -11 -3 -1 13 7 12 23 23 36 27 13 3 23 12 23
19 0 8 11 21 25 30 35 23 40 20 11 -8 -24 -21 -34 -46 -20 -46 15 0 94 95 89
107 -2 8 -1 11 4 8 5 -3 12 -1 16 5 3 5 -1 10 -10 10 -9 0 -13 5 -10 11 4 6
10 8 13 5 3 -3 13 8 23 24 11 17 24 30 29 30 6 0 9 4 6 9 -11 16 5 40 22 34
15 -4 15 -3 2 6 -13 10 -13 12 0 21 12 8 12 10 1 10 -9 0 -7 6 7 19 12 10 19
21 16 24 -4 3 0 30 7 59 14 61 18 98 8 92 -4 -2 -10 3 -13 12 -3 8 -2 12 4 9
14 -9 12 6 -5 35 -18 31 -19 54 -2 44 6 -4 2 3 -10 15 -13 12 -23 26 -23 31 0
17 -3 25 -18 39 -7 8 -25 31 -38 53 -13 21 -29 38 -36 38 -6 0 -8 3 -5 6 3 4
-3 18 -13 32 -11 13 -20 30 -20 37 0 18 -35 55 -53 55 -10 0 -14 6 -11 15 5
13 0 17 -21 14 -3 0 -20 11 -36 25 -17 15 -35 26 -40 26 -5 0 -9 7 -9 15 0 8
-5 15 -11 15 -5 0 -7 -4 -4 -10 3 -6 -1 -7 -9 -4 -9 3 -14 10 -11 14 3 4 -2
11 -11 14 -9 4 -14 9 -11 12 3 3 13 1 24 -5 10 -5 26 -12 36 -15 10 -3 16 -10
12 -15 -3 -5 -2 -12 3 -15 4 -2 9 4 9 15 1 12 -9 25 -28 34 -16 9 -29 20 -29
26 0 7 6 6 17 -2 16 -13 16 -12 0 14 -16 24 -16 28 -2 33 23 9 19 37 -4 29
-13 -4 -21 0 -25 12 -3 11 -15 19 -26 20 -11 1 -18 -2 -15 -8 4 -5 13 -9 20
-9 9 0 12 -6 9 -15 -4 -8 -14 -15 -23 -15 -13 0 -13 2 -2 9 19 12 2 20 -52 22
-26 2 -47 7 -47 12 0 5 -7 7 -15 4 -19 -8 -31 11 -16 26 8 8 11 8 11 -1 0 -9
5 -10 18 -3 13 7 23 4 40 -12 20 -18 24 -19 32 -7 7 11 5 16 -5 18 -8 2 -18
15 -21 28 -5 18 -11 23 -24 19 -9 -3 -30 0 -46 6 -16 6 -41 11 -56 11 -16 0
-28 3 -28 8 0 8 -33 20 -92 36 -5 1 -11 3 -15 4 -10 3 -10 3 -70 -4 -33 -4
-53 -2 -53 4 0 5 -9 10 -21 10 -15 0 -19 4 -15 16 5 14 4 15 -9 4 -8 -7 -15
-9 -15 -4 0 5 -5 2 -10 -6 -8 -12 -10 -9 -10 13 0 15 7 30 15 33 8 4 12 11 9
16 -8 12 -43 -30 -44 -50 0 -7 -4 -10 -10 -7 -5 3 -10 -1 -10 -10 0 -13 -4
-14 -20 -5 -11 6 -20 7 -19 3 3 -21 -2 -33 -15 -33 -9 0 -12 -7 -9 -19 3 -10
0 -22 -6 -25 -6 -4 -11 -1 -11 6 0 7 -11 1 -24 -14 -13 -16 -28 -28 -33 -28
-15 0 -63 -24 -63 -32 0 -5 -7 -8 -15 -8 -8 0 -15 -4 -15 -10 0 -5 -7 -10 -16
-10 -8 0 -12 -4 -9 -10 3 -5 1 -10 -5 -10 -14 0 -40 -25 -40 -39 0 -10 -21
-16 -42 -12 -5 0 -8 -3 -8 -9 0 -5 -7 -7 -15 -4 -8 4 -15 1 -15 -4 0 -6 -10
-22 -22 -36 -35 -38 -49 -56 -43 -56 6 0 -24 -62 -34 -70 -15 -12 -31 -50 -20
-50 5 0 7 -5 4 -10 -4 -6 -11 -8 -16 -5 -5 4 -9 1 -9 -5 0 -7 8 -9 23 -5 16 6
19 4 11 -4 -8 -9 -23 -9 -60 0 -27 7 -51 15 -54 19 -3 3 -25 12 -49 19 -47 14
-153 61 -161 72 -3 3 -21 14 -40 24 -31 16 -33 16 -21 2 7 -10 19 -17 25 -17
6 0 24 -12 39 -25 35 -31 27 -54 -10 -30 -17 12 -23 13 -17 4 6 -12 5 -12 -8
-1 -13 10 -22 11 -37 3 -24 -13 -94 -15 -86 -2 3 5 0 13 -6 17 -7 4 -9 3 -6
-3 7 -11 -13 -23 -38 -23 -22 0 -185 -71 -185 -81 0 -12 27 -12 32 1 2 5 34
21 73 34 55 19 73 22 84 13 11 -9 13 -9 8 -1 -4 7 0 15 9 18 8 3 12 2 9 -4 -4
-6 3 -8 17 -6 13 3 23 5 23 7 0 1 11 2 25 3 14 1 31 5 38 10 7 4 16 5 19 2 11
-11 -5 -18 -41 -19 -24 -1 -36 -6 -36 -15 0 -8 -6 -12 -14 -9 -7 3 -19 0 -26
-6 -10 -9 -11 -9 -6 3 4 8 1 7 -7 -3 -11 -14 -16 -15 -20 -5 -4 9 -6 7 -6 -4
-1 -14 -5 -15 -31 -7 -16 6 -37 9 -47 6 -12 -3 -9 -5 9 -6 40 -2 41 -16 1 -18
-19 -1 -50 -11 -69 -22 -19 -12 -33 -17 -30 -13 3 5 -10 15 -29 24 -19 8 -34
12 -33 9 2 -20 -3 -31 -12 -26 -5 3 -10 1 -10 -4 0 -6 -27 -28 -60 -48 -42
-27 -58 -43 -54 -53 3 -8 -4 -5 -15 7 -24 25 -27 37 -8 30 8 -3 20 -1 28 5 11
8 10 9 -3 4 -12 -3 -18 0 -18 10 0 8 5 12 11 9 6 -4 5 2 -2 14 -15 22 -31 9
-21 -17 3 -10 1 -13 -6 -8 -7 4 -12 3 -12 -3 0 -5 -9 -9 -19 -8 -11 0 -17 5
-15 9 3 5 10 6 15 3 5 -4 9 1 9 10 0 9 -5 13 -11 9 -7 -4 -10 3 -7 22 2 18 -2
29 -12 31 -13 4 -13 3 0 -6 13 -9 12 -11 -4 -11 -12 0 -16 -5 -12 -15 3 -8 0
-15 -6 -15 -7 0 -7 -4 1 -14 8 -10 9 -16 1 -21 -6 -3 -8 -11 -4 -16 3 -5 0 -8
-8 -7 -8 2 -12 -6 -11 -22 1 -15 0 -18 -3 -7 -3 10 -11 14 -17 11 -7 -4 -9 -3
-4 1 4 5 -1 17 -10 28 -11 12 -12 17 -4 12 9 -5 12 -4 7 3 -4 6 -13 9 -21 6
-13 -5 -13 -8 0 -21 8 -8 15 -19 15 -25 0 -6 -9 -1 -20 12 -12 14 -18 31 -14
42 6 21 -6 24 -25 6 -11 -10 -13 -10 -7 0 5 7 1 12 -9 12 -9 0 -14 4 -11 9 3
5 -2 12 -11 15 -15 6 -15 8 -3 16 8 5 11 12 7 17 -11 11 -26 -17 -20 -36 3 -9
-6 -2 -21 14 -25 30 -34 51 -17 40 5 -3 12 -2 15 3 3 5 0 9 -7 10 -47 3 -80
19 -71 34 4 7 2 8 -4 4 -6 -4 -21 -2 -32 4 -12 6 -29 9 -38 7 -13 -3 -11 -7
11 -15 15 -6 27 -16 27 -21 0 -5 3 -16 6 -25 5 -14 2 -14 -27 -2 -19 7 -44 12
-57 10 -13 -2 -21 -1 -19 3 3 5 -6 9 -20 9 l-25 2 22 -15 c12 -8 19 -21 16
-29 -3 -8 -2 -13 2 -13 22 4 41 -3 46 -16 5 -13 2 -13 -19 1 -19 12 -25 13
-25 3 0 -10 -3 -10 -12 -1 -15 15 -32 16 -23 2 10 -16 -12 -12 -56 10 -22 12
-44 18 -49 15 -6 -3 -10 -2 -10 4 0 12 -39 6 -54 -9 -7 -7 0 -9 24 -5 l35 5
-43 -20 c-42 -21 -69 -19 -56 2 4 7 2 8 -5 4 -6 -4 -9 -12 -6 -17 4 -5 -1 -9
-9 -9 -9 0 -16 7 -16 15 0 8 5 15 12 15 6 0 8 3 5 7 -4 3 -20 -5 -35 -18 -28
-26 -92 -39 -92 -20 0 20 -3 26 -16 36 -13 10 -17 25 -30 105 -3 19 -10 39
-15 44 -5 6 -2 18 9 30 16 20 16 20 0 7 -10 -7 -18 -10 -19 -5 -1 11 -6 31
-14 59 -7 23 29 72 49 67 6 -1 1 5 -11 15 -23 20 -30 48 -19 75 5 11 0 30 -14
53 -20 32 -20 36 -6 51 9 8 14 19 11 24 -3 5 -1 11 5 15 5 3 10 11 10 17 0 6
-6 6 -15 -2 -9 -7 -14 -18 -11 -25 2 -6 -2 -12 -10 -12 -13 0 -18 18 -17 54 1
7 -3 11 -7 8 -17 -10 -25 21 -26 96 0 63 -6 86 -32 143 -18 38 -36 65 -42 61
-5 -3 -10 -2 -10 3 0 29 -155 62 -192 41z m2692 -433 c0 -11 -19 -15 -25 -6
-3 5 1 10 9 10 9 0 16 -2 16 -4z m410 -30 c0 -2 -7 -9 -15 -16 -12 -10 -15
-10 -15 4 0 9 7 16 15 16 8 0 15 -2 15 -4z m33 -23 c-7 -2 -13 -12 -13 -21 0
-14 -2 -15 -9 -2 -12 18 -5 30 17 29 11 0 12 -3 5 -6z m94 -79 c-3 -3 -12 -4
-19 -1 -8 3 -5 6 6 6 11 1 17 -2 13 -5z m-1204 -297 c4 3 7 1 7 -5 0 -17 -13
-21 -37 -11 -13 5 -23 15 -23 24 0 14 2 14 23 0 13 -8 27 -12 30 -8z m-187 -9
c3 -4 12 -4 20 -1 8 3 14 -1 14 -8 0 -9 3 -10 8 -3 4 6 16 14 27 17 18 7 19 6
3 -6 -10 -8 -14 -18 -10 -22 4 -5 1 -5 -5 -1 -8 4 -13 2 -13 -6 -1 -9 -4 -8
-10 3 -10 17 -64 20 -90 4 -10 -5 -9 -1 3 12 17 20 39 24 53 11z m244 2 c20
-12 9 -21 -18 -13 -12 3 -19 9 -16 14 7 11 15 11 34 -1z m-1113 -23 c21 3 24
2 13 -6 -8 -5 -17 -8 -21 -5 -11 7 -18 -22 -8 -37 7 -11 9 -11 9 -1 0 7 5 10
11 6 18 -11 -10 -22 -43 -17 -23 3 -28 1 -23 -9 5 -9 5 -10 -2 -3 -6 6 -13 23
-17 38 -6 26 -5 27 13 17 23 -12 34 0 25 27 -5 16 -4 16 5 2 7 -11 20 -15 38
-12z m996 7 c1 -4 -10 -8 -25 -8 -34 -2 -35 2 -5 13 23 9 27 8 30 -5z m-1096
-29 c0 -8 -4 -12 -9 -9 -4 3 -8 9 -8 15 0 5 4 9 8 9 5 0 9 -7 9 -15z m1137 -1
c3 -8 2 -12 -4 -9 -6 3 -10 10 -10 16 0 14 7 11 14 -7z m-988 -19 c9 -14 14
-28 11 -32 -4 -3 -10 3 -14 13 -4 10 -14 24 -22 31 -11 8 -12 12 -4 13 7 0 20
-11 29 -25z m1152 17 c13 13 45 -3 48 -26 2 -13 -2 -14 -17 -6 -10 6 -19 7
-19 3 0 -4 -5 -1 -10 7 -5 8 -10 10 -10 3 0 -8 -6 -8 -24 0 -13 7 -22 15 -20
19 3 5 13 4 23 -2 12 -6 22 -5 29 2z m-73 -13 c11 -16 1 -19 -13 -3 -7 8 -8
14 -3 14 5 0 13 -5 16 -11z m-1383 -14 c14 -19 8 -25 -12 -13 -15 10 -22 10
-31 1 -9 -9 -6 -10 12 -6 22 6 23 5 10 -11 -13 -15 -15 -15 -32 0 -15 13 -16
20 -7 31 12 15 49 14 60 -2z m795 -10 c0 -8 -4 -15 -9 -15 -4 0 -8 7 -8 15 0
8 4 15 8 15 5 0 9 -7 9 -15z m-37 -20 c-7 -9 -15 -13 -18 -10 -3 2 1 11 8 20
7 9 15 13 18 10 3 -2 -1 -11 -8 -20z m-640 11 c0 -3 -4 -8 -10 -11 -5 -3 -10
-1 -10 4 0 6 5 11 10 11 6 0 10 -2 10 -4z m-190 -18 c0 -5 -9 -8 -19 -8 -11 0
-22 3 -24 8 -3 4 6 7 19 7 13 0 24 -3 24 -7z m374 2 c2 -3 -13 -5 -34 -5 -21
0 -37 2 -34 6 4 7 60 6 68 -1z m36 0 c0 -5 -5 -10 -11 -10 -5 0 -7 5 -4 10 3
6 8 10 11 10 2 0 4 -4 4 -10z m51 -43 c-10 -9 -11 -8 -5 6 3 10 9 15 12 12 3
-3 0 -11 -7 -18z m176 -12 c-1 -5 5 -8 13 -7 8 2 11 0 7 -5 -5 -4 -12 -7 -15
-6 -4 0 -16 -3 -27 -9 -19 -9 -19 -8 -2 6 18 14 18 15 0 25 -16 9 -16 10 4 8
12 0 21 -6 20 -12z m-2264 -378 c6 -16 -3 -31 -20 -34 -15 -3 -17 13 -3 22 6
4 8 11 5 16 -4 5 -2 9 3 9 6 0 12 -6 15 -13z m37 -21 c0 -2 -8 -10 -17 -17
-16 -13 -17 -12 -4 4 13 16 21 21 21 13z m20 -40 c0 -3 -4 -8 -10 -11 -5 -3
-10 -1 -10 4 0 6 5 11 10 11 6 0 10 -2 10 -4z m60 -212 c0 -8 -19 -13 -24 -6
-3 5 1 9 9 9 8 0 15 -2 15 -3z m4083 -29 c6 -6 10 -5 14 3 4 10 8 10 19 1 8
-6 14 -8 14 -3 0 4 7 -1 16 -12 15 -19 15 -19 11 2 -4 18 0 20 30 19 34 -2 60
-15 29 -15 -9 0 -19 -6 -22 -14 -5 -12 -14 -13 -79 -2 -11 2 -27 4 -36 5 -9 0
-19 8 -23 16 -6 16 14 16 27 0z m-96 -77 c-3 -8 -6 -5 -6 6 -1 11 2 17 5 13 3
-3 4 -12 1 -19z m267 -302 c3 2 4 1 1 -3 -3 -3 4 -13 15 -20 11 -8 18 -18 15
-23 -6 -9 -55 35 -55 49 0 4 -12 13 -26 19 -15 7 -22 17 -18 24 5 7 16 1 35
-20 15 -17 30 -29 33 -26z m-4326 -92 c6 3 9 -1 8 -9 -3 -18 -41 -55 -57 -55
-6 0 -9 -7 -6 -14 4 -11 1 -13 -10 -9 -12 5 -14 3 -8 -7 5 -8 4 -11 -3 -7 -7
5 -7 14 1 31 7 13 15 22 19 20 5 -3 8 0 8 7 0 6 8 18 18 26 9 8 11 12 5 8 -9
-4 -11 -1 -6 10 4 12 8 13 13 5 4 -7 12 -10 18 -6z m4423 -61 c13 -16 12 -17
-3 -4 -10 7 -18 15 -18 17 0 8 8 3 21 -13z m229 -663 c0 -5 -7 -7 -15 -4 -8 4
-12 10 -9 15 6 11 24 2 24 -11z m-44 -46 c1 -9 0 -13 -3 -10 -4 3 -15 -6 -25
-21 -10 -16 -18 -23 -18 -17 0 5 5 15 11 21 9 9 12 18 18 52 2 9 15 -10 17
-25z m-26 -232 c7 2 15 -3 17 -10 3 -8 -1 -10 -11 -6 -12 5 -15 2 -10 -10 4
-10 1 -16 -9 -16 -11 0 -15 9 -15 31 1 16 4 25 8 19 4 -6 13 -10 20 -8z m-16
-68 c3 -8 2 -12 -4 -9 -6 3 -10 10 -10 16 0 14 7 11 14 -7z m-9 -85 c-4 -5 -2
-9 2 -9 5 0 10 -13 11 -30 1 -16 -2 -30 -8 -30 -5 0 -10 13 -10 29 0 17 -5 33
-10 36 -6 4 -8 11 -4 16 3 5 10 7 15 3 5 -3 7 -10 4 -15z m23 -124 c-3 -3 -9
2 -12 12 -6 14 -5 15 5 6 7 -7 10 -15 7 -18z m-76 -177 c-8 -8 -9 -4 -5 13 4
13 8 18 11 10 2 -7 -1 -18 -6 -23z m-4602 -338 c0 -5 -5 -10 -11 -10 -5 0 -7
5 -4 10 3 6 8 10 11 10 2 0 4 -4 4 -10z m93 -188 c13 -14 14 -19 3 -19 -7 0
-18 9 -25 19 -6 10 -7 18 -3 18 5 0 16 -8 25 -18z m98 -165 c-6 -8 -9 -16 -6
-19 3 -2 -2 -5 -10 -5 -13 0 -13 3 2 19 19 21 31 25 14 5z m4184 -26 c7 -12
-12 -24 -25 -16 -11 7 -4 25 10 25 5 0 11 -4 15 -9z m-4187 -57 c-12 -12 -17
-13 -23 -3 -5 8 -4 10 4 5 6 -4 14 0 17 9 4 9 9 13 12 10 3 -3 -1 -13 -10 -21z
m4136 -10 c3 -8 2 -12 -4 -9 -6 3 -10 1 -10 -6 0 -7 -2 -10 -5 -7 -5 5 4 38
10 38 2 0 6 -7 9 -16z m-4150 -39 c-4 -8 -11 -15 -16 -15 -6 0 -5 6 2 15 7 8
14 15 16 15 2 0 1 -7 -2 -15z m-44 -9 c0 -8 8 -17 18 -20 11 -3 10 -4 -5 -3
-12 1 -22 -2 -22 -8 0 -5 12 -9 27 -8 25 2 26 1 8 -12 -14 -10 -24 -11 -38 -4
-10 5 -24 7 -31 3 -6 -4 -1 4 12 19 12 14 20 30 16 36 -3 6 -1 11 4 11 6 0 11
-6 11 -14z m60 -266 c0 -11 -4 -20 -9 -20 -7 0 -8 17 -2 38 4 10 11 -2 11 -18z
m2 -55 c-2 -14 -8 -23 -12 -20 -10 6 -1 45 10 45 4 0 5 -11 2 -25z m16 -295
c0 -22 -4 -42 -7 -45 -4 -2 -6 13 -5 33 2 48 3 52 8 52 3 0 4 -18 4 -40z
m4143 23 c1 -10 3 -28 4 -40 1 -13 -2 -23 -6 -23 -5 0 -9 11 -9 24 0 13 -3 31
-6 40 -3 9 -1 16 5 16 6 0 12 -8 12 -17z m-4116 -52 c3 -5 2 -12 -3 -15 -5 -3
-9 1 -9 9 0 17 3 19 12 6z m4145 -50 c3 -2 -3 -1 -12 2 -12 4 -15 2 -11 -8 3
-8 9 -13 13 -10 5 3 12 0 16 -6 4 -8 3 -9 -4 -5 -7 4 -12 2 -12 -3 0 -6 5 -11
11 -11 6 0 9 -7 5 -15 -3 -8 -1 -15 5 -15 6 0 9 -7 5 -15 -3 -8 -2 -15 3 -15
5 0 11 -10 14 -22 3 -13 9 -33 12 -45 5 -15 3 -23 -4 -23 -7 0 -10 3 -7 8 2 4
-2 18 -10 32 l-14 25 3 -29 c2 -17 12 -35 23 -40 10 -6 21 -12 23 -13 2 -2 -2
-10 -9 -18 -11 -13 -15 -13 -22 -3 -7 10 -9 10 -5 -2 2 -8 9 -15 14 -15 14 0
26 -12 29 -28 8 -39 13 -58 18 -66 7 -10 -22 -24 -33 -16 -4 2 -8 -2 -8 -9 0
-9 7 -12 16 -8 14 5 14 4 1 -14 -8 -10 -11 -16 -6 -12 15 12 44 -24 41 -51 -2
-14 2 -32 7 -38 7 -9 7 -13 -1 -13 -7 0 -9 -5 -5 -12 4 -7 3 -8 -4 -4 -8 5
-10 2 -6 -8 3 -9 9 -14 13 -11 4 2 7 -34 7 -80 -1 -47 2 -85 5 -85 8 0 4 -86
-6 -123 -12 -46 -26 -16 -16 35 5 31 5 50 -2 57 -8 8 -7 11 4 11 11 0 11 2 1
9 -7 4 -14 27 -15 49 -1 23 -4 42 -7 42 -3 0 -5 24 -5 53 0 28 -3 57 -7 63 -4
6 -6 27 -5 47 2 20 0 37 -3 37 -4 0 -7 6 -8 13 0 6 -2 21 -5 32 -15 69 -17 94
-6 101 9 5 10 1 7 -14 -4 -12 -2 -20 3 -17 5 4 8 17 7 30 -2 19 -6 22 -19 14
-14 -7 -17 -4 -15 26 1 19 -2 36 -7 38 -4 1 -10 29 -13 62 -3 33 -8 67 -11 75
-4 8 -5 21 -4 28 1 6 -3 12 -8 12 -6 0 -10 11 -9 24 2 24 8 24 38 -3z m-4135
-80 c3 -5 2 -12 -3 -15 -5 -3 -9 1 -9 9 0 17 3 19 12 6z m-28 -43 c2 -17 0
-19 -7 -8 -5 8 -6 18 -4 22 8 12 10 10 11 -14z m30 -13 c0 -8 -4 -12 -9 -9 -5
3 -6 10 -3 15 9 13 12 11 12 -6z m13 -34 c0 -6 -4 -13 -10 -16 -5 -3 -10 1
-10 9 0 9 5 16 10 16 6 0 10 -4 10 -9z m-11 -68 c-1 -21 1 -48 5 -60 5 -17 4
-22 -6 -18 -13 5 -14 23 -9 98 0 9 3 17 6 17 3 0 5 -17 4 -37z m181 -28 c0 -7
-30 -13 -34 -7 -3 4 4 9 15 9 10 1 19 0 19 -2z m33 -42 c-15 -6 -17 -39 -3
-48 5 -3 9 -17 8 -31 -2 -23 -3 -24 -15 -7 -8 9 -11 23 -9 30 3 7 1 13 -3 13
-5 0 -7 9 -4 20 4 16 2 19 -13 14 -12 -4 -15 -3 -7 3 7 5 23 9 35 10 13 0 17
-1 11 -4z m15 -38 c-3 -3 -9 2 -12 12 -6 14 -5 15 5 6 7 -7 10 -15 7 -18z
m3992 -45 c0 -5 -2 -10 -4 -10 -3 0 -8 5 -11 10 -3 6 -1 10 4 10 6 0 11 -4 11
-10z m-3886 -146 c3 -8 2 -12 -4 -9 -6 3 -10 10 -10 16 0 14 7 11 14 -7z
m-297 -326 c2 -12 1 -19 -2 -16 -3 3 -8 16 -10 28 -2 12 -1 20 2 16 4 -4 8
-16 10 -28z m4157 -10 c-3 -18 -8 -40 -11 -48 -4 -8 -5 -21 -4 -28 3 -16 -46
-82 -60 -82 -5 0 5 18 22 40 18 22 29 43 26 46 -3 4 -2 16 4 28 10 20 9 20 -5
2 -9 -10 -13 -23 -10 -28 4 -5 -8 -27 -25 -48 -18 -23 -27 -41 -21 -45 6 -4 8
-11 4 -16 -8 -13 -31 20 -31 43 0 9 5 15 10 11 5 -3 6 3 3 15 -4 12 -2 23 5
28 9 5 10 2 6 -9 -11 -29 12 -18 28 13 9 17 13 30 10 30 -4 0 3 12 14 26 12
15 21 33 21 40 0 8 4 14 10 14 5 0 7 -14 4 -32z m-3690 -659 c-3 -5 -10 -7
-15 -3 -5 3 -7 10 -3 15 3 5 10 7 15 3 5 -3 7 -10 3 -15z m-136 -54 c-3 -3 -9
2 -12 12 -6 14 -5 15 5 6 7 -7 10 -15 7 -18z m2696 -103 c3 -5 -1 -9 -9 -9 -8
0 -15 4 -15 9 0 4 4 8 9 8 6 0 12 -4 15 -8z m56 -56 c0 -2 -7 -7 -16 -10 -8
-3 -12 -2 -9 4 6 10 25 14 25 6z m-3550 -36 c0 -5 -5 -10 -11 -10 -5 0 -7 5
-4 10 3 6 8 10 11 10 2 0 4 -4 4 -10z m-1315 -410 c-17 -19 -17 -19 15 -15 18
2 29 1 26 -2 -9 -9 -66 -14 -66 -6 0 8 31 43 38 43 3 0 -3 -9 -13 -20z m-21
-49 c-2 -3 -12 3 -22 13 -16 17 -16 18 5 5 12 -7 20 -15 17 -18z m5751 9 c-3
-5 -12 -10 -18 -10 -7 0 -6 4 3 10 19 12 23 12 15 0z m-6308 -535 c0 -8 -4
-12 -9 -9 -5 3 -6 10 -3 15 9 13 12 11 12 -6z m7500 -80 c0 -8 -4 -12 -9 -9
-5 3 -6 10 -3 15 9 13 12 11 12 -6z m131 -52 c7 -7 19 -13 25 -13 7 0 6 -4 -3
-10 -8 -5 -19 -10 -25 -10 -5 0 -3 5 5 10 13 9 13 10 0 11 -8 1 -19 1 -23 0
-5 -1 -6 3 -2 8 6 11 -29 34 -39 24 -3 -3 -6 1 -6 11 0 15 2 15 28 -1 15 -10
33 -23 40 -30z m-7688 -29 c0 -8 -19 -13 -24 -6 -3 5 1 9 9 9 8 0 15 -2 15 -3z
m-10 -38 c0 -3 -4 -8 -10 -11 -5 -3 -10 -1 -10 4 0 6 5 11 10 11 6 0 10 -2 10
-4z m7871 -66 c13 -10 18 -19 12 -20 -7 0 -13 5 -13 11 0 8 -5 7 -15 -1 -13
-11 -14 -10 -9 5 5 13 4 16 -4 11 -7 -4 -12 -2 -12 3 0 16 15 13 41 -9z m14
-40 c3 -6 -1 -7 -9 -4 -18 7 -21 14 -7 14 6 0 13 -4 16 -10z m186 -117 c13
-16 12 -17 -3 -4 -10 7 -18 15 -18 17 0 8 8 3 21 -13z m188 -187 c9 -11 9 -16
-1 -22 -7 -4 -10 -4 -6 1 4 4 3 14 -3 22 -6 7 -9 13 -6 13 2 0 10 -6 16 -14z
m23 -38 c-7 -7 -12 -8 -12 -2 0 14 12 26 19 19 2 -3 -1 -11 -7 -17z m88 -138
c0 -5 -5 -10 -11 -10 -5 0 -7 5 -4 10 3 6 8 10 11 10 2 0 4 -4 4 -10z m25 -28
c-2 -9 -4 -18 -4 -20 -1 -2 -6 0 -11 3 -8 5 -8 11 -1 19 6 7 7 17 3 21 -4 5
-2 5 5 2 6 -4 10 -15 8 -25z m96 -306 c-6 -7 -9 -16 -6 -19 3 -4 3 -6 1 -4 -2
1 -5 7 -6 12 -1 6 -7 17 -13 25 -11 13 -10 13 7 0 18 -14 18 -13 12 10 -6 21
-5 22 4 7 8 -13 9 -22 1 -31z m-1 -40 c0 -3 -4 -8 -10 -11 -5 -3 -10 -1 -10 4
0 6 5 11 10 11 6 0 10 -2 10 -4z m-5 -46 c-3 -5 -1 -10 6 -10 7 0 10 -3 6 -6
-9 -9 -28 6 -22 17 4 5 8 9 11 9 3 0 2 -4 -1 -10z m10 -60 c-3 -5 -12 -10 -18
-10 -7 0 -6 4 3 10 19 12 23 12 15 0z m0 -240 c3 -6 -1 -7 -9 -4 -18 7 -21 14
-7 14 6 0 13 -4 16 -10z m-6 -44 c9 -11 9 -16 -1 -22 -7 -4 -10 -4 -6 1 4 4 3
14 -3 22 -6 7 -9 13 -6 13 2 0 10 -6 16 -14z m1 -76 c0 -5 -2 -10 -4 -10 -3 0
-8 5 -11 10 -3 6 -1 10 4 10 6 0 11 -4 11 -10z m-1 -84 c-3 -3 -11 5 -18 17
-13 21 -12 21 5 5 10 -10 16 -20 13 -22z m-44 -144 c-3 -3 -11 0 -18 7 -9 10
-8 11 6 5 10 -3 15 -9 12 -12z m-8525 -8 c0 -8 -19 -13 -24 -6 -3 5 1 9 9 9 8
0 15 -2 15 -3z"/>
<path d="M4865 8900 c-4 -6 -11 -7 -17 -4 -7 4 -8 2 -4 -5 4 -6 11 -9 16 -6 4
3 10 -1 13 -7 3 -7 4 -3 4 10 -1 25 -3 26 -12 12z"/>
<path d="M6110 8896 c0 -2 7 -7 16 -10 8 -3 12 -2 9 4 -6 10 -25 14 -25 6z"/>
<path d="M7331 4337 c-6 -8 -8 -17 -4 -20 12 -13 22 -7 20 13 -2 24 -1 24 -16
7z"/>
<path d="M7346 4201 c2 -50 3 -51 15 -51 8 0 8 4 0 13 -8 10 -7 17 2 27 9 10
9 11 0 6 -16 -9 -17 6 -2 21 7 7 6 12 -3 16 -10 3 -13 -5 -12 -32z"/>
<path d="M6730 9480 c0 -6 7 -10 15 -10 8 0 15 2 15 4 0 2 -7 6 -15 10 -8 3
-15 1 -15 -4z"/>
<path d="M6816 9474 c-5 -14 -4 -15 9 -4 17 14 19 20 6 20 -5 0 -12 -7 -15
-16z"/>
<path d="M7176 9372 c-3 -5 1 -9 9 -9 8 0 15 4 15 9 0 4 -4 8 -9 8 -6 0 -12
-4 -15 -8z"/>
<path d="M6450 9320 c0 -5 5 -10 11 -10 5 0 7 5 4 10 -3 6 -8 10 -11 10 -2 0
-4 -4 -4 -10z"/>
<path d="M7285 9210 c28 -12 37 -12 30 0 -3 6 -16 10 -28 9 -21 0 -21 -1 -2
-9z"/>
<path d="M5788 9028 c5 -5 16 -8 23 -6 8 3 3 7 -10 11 -17 4 -21 3 -13 -5z"/>
<path d="M5719 9017 c5 -5 19 -7 32 -5 20 3 19 5 -9 9 -20 3 -29 2 -23 -4z"/>
<path d="M4810 8950 c0 -5 7 -10 16 -10 8 0 12 5 9 10 -3 6 -10 10 -16 10 -5
0 -9 -4 -9 -10z"/>
<path d="M5615 8949 c-4 -6 -5 -12 -2 -15 2 -3 7 2 10 11 7 17 1 20 -8 4z"/>
<path d="M5070 8926 c0 -2 7 -7 16 -10 8 -3 12 -2 9 4 -6 10 -25 14 -25 6z"/>
<path d="M5137 8898 c7 -9 6 -23 -2 -42 -10 -23 -13 -25 -19 -11 -3 9 -3 22 1
27 3 7 1 8 -5 4 -7 -4 -12 -3 -12 2 0 5 -6 9 -13 9 -8 0 -14 -6 -14 -13 0 -7
6 -10 13 -7 7 3 14 -5 16 -18 5 -35 27 -34 42 2 14 34 12 59 -6 59 -7 0 -7 -4
-1 -12z"/>
<path d="M5479 8893 c-13 -15 -12 -15 9 -4 23 12 28 21 13 21 -5 0 -15 -7 -22
-17z"/>
<path d="M3030 8880 c0 -5 5 -10 11 -10 5 0 7 5 4 10 -3 6 -8 10 -11 10 -2 0
-4 -4 -4 -10z"/>
<path d="M5131 8816 c-13 -7 -19 -16 -14 -19 6 -4 18 2 28 13 21 23 19 24 -14
6z"/>
<path d="M2955 8280 c-4 -6 3 -10 14 -10 25 0 27 6 6 13 -8 4 -17 2 -20 -3z"/>
<path d="M2989 8208 c-8 -27 -5 -36 9 -30 10 4 12 7 4 10 -7 2 -10 8 -6 13 3
5 3 9 0 9 -3 0 -6 -1 -7 -2z"/>
<path d="M3024 8199 c-4 -7 -3 -9 4 -5 6 3 15 -2 21 -11 6 -10 11 -13 11 -7 0
20 -27 37 -36 23z"/>
<path d="M7355 8121 c-3 -5 -1 -12 5 -16 5 -3 10 1 10 9 0 18 -6 21 -15 7z"/>
<path d="M7116 8032 c-3 -5 1 -9 9 -9 8 0 12 4 9 9 -3 4 -7 8 -9 8 -2 0 -6 -4
-9 -8z"/>
<path d="M7170 8016 c0 -2 8 -10 18 -17 15 -13 16 -12 3 4 -13 16 -21 21 -21
13z"/>
<path d="M7128 8003 c6 -2 10 -9 7 -14 -4 -5 2 -6 11 -2 13 5 15 3 9 -7 -6 -9
-4 -11 5 -5 10 6 9 11 -5 22 -11 7 -24 13 -29 12 -6 0 -5 -3 2 -6z"/>
<path d="M7262 7884 c10 -10 20 -15 24 -12 3 4 -5 12 -18 18 -22 12 -22 12 -6
-6z"/>
<path d="M7210 7880 c0 -5 5 -10 11 -10 5 0 7 5 4 10 -3 6 -8 10 -11 10 -2 0
-4 -4 -4 -10z"/>
<path d="M2952 7754 c-10 -11 -10 -14 0 -14 9 0 9 -3 -2 -10 -8 -5 -11 -12 -8
-15 10 -10 25 2 31 25 6 25 -4 32 -21 14z"/>
<path d="M2925 7689 c-11 -17 1 -21 15 -4 8 9 8 15 2 15 -6 0 -14 -5 -17 -11z"/>
<path d="M2905 7630 c-4 -17 -5 -34 -2 -36 2 -3 7 10 11 27 8 42 0 50 -9 9z"/>
<path d="M7717 7264 c3 -16 6 -34 6 -41 0 -7 4 -10 8 -7 5 2 4 15 0 27 -5 12
-9 26 -9 30 0 5 -3 11 -6 14 -3 3 -3 -7 1 -23z"/>
<path d="M7645 7180 c3 -5 8 -10 11 -10 2 0 4 5 4 10 0 6 -5 10 -11 10 -5 0
-7 -4 -4 -10z"/>
<path d="M7726 7178 c3 -5 10 -6 15 -3 13 9 11 12 -6 12 -8 0 -12 -4 -9 -9z"/>
<path d="M7585 7150 c-4 -6 -3 -16 3 -22 6 -6 12 -6 17 2 4 6 3 16 -3 22 -6 6
-12 6 -17 -2z"/>
<path d="M7630 6685 c0 -8 2 -15 4 -15 2 0 6 7 10 15 3 8 1 15 -4 15 -6 0 -10
-7 -10 -15z"/>
<path d="M7659 6683 c0 -5 -3 -19 -5 -32 -2 -14 -2 -22 1 -19 8 8 17 58 10 58
-3 0 -5 -3 -6 -7z"/>
<path d="M7600 6500 c-13 -8 -12 -10 3 -10 9 0 17 5 17 10 0 12 -1 12 -20 0z"/>
<path d="M7650 6459 c0 -5 5 -7 10 -4 6 3 10 8 10 11 0 2 -4 4 -10 4 -5 0 -10
-5 -10 -11z"/>
<path d="M2775 6220 c3 -5 2 -10 -3 -10 -5 0 -9 -7 -9 -15 0 -10 4 -12 12 -5
8 7 12 5 12 -5 0 -8 -4 -15 -9 -15 -4 0 -8 -9 -8 -20 0 -11 5 -20 11 -20 5 0
7 -6 3 -12 -5 -10 -3 -10 7 0 12 11 12 14 0 22 -13 7 -13 11 -1 25 15 18 22
57 8 49 -4 -3 -8 0 -8 5 0 6 -5 11 -11 11 -5 0 -7 -4 -4 -10z"/>
<path d="M2804 6039 c-3 -6 -2 -15 3 -20 5 -5 9 -1 9 11 0 23 -2 24 -12 9z"/>
<path d="M2821 5941 c-1 -8 6 -23 16 -33 9 -10 11 -18 5 -18 -6 0 -9 -7 -5
-16 9 -23 23 3 22 41 0 25 -2 27 -9 10 -8 -19 -8 -19 -18 5 -6 14 -11 19 -11
11z"/>
<path d="M2860 5861 c0 -5 -7 -17 -17 -26 -11 -12 -13 -19 -5 -24 6 -4 13 -18
15 -31 2 -13 15 -30 28 -38 23 -13 23 -13 5 2 -11 9 -17 18 -14 22 3 3 0 17
-8 32 -11 23 -11 30 2 49 8 13 10 23 4 23 -5 0 -10 -4 -10 -9z"/>
<path d="M2997 5557 c-3 -9 -3 -16 1 -14 16 5 54 -32 46 -45 -6 -10 -4 -10 9
1 17 14 24 37 8 27 -5 -3 -11 1 -15 9 -3 8 -12 15 -20 15 -8 0 -16 5 -18 12
-3 8 -7 6 -11 -5z"/>
<path d="M2965 5520 c3 -5 8 -10 11 -10 2 0 4 5 4 10 0 6 -5 10 -11 10 -5 0
-7 -4 -4 -10z"/>
<path d="M2933 5318 c-16 -21 -23 -48 -13 -48 6 0 10 8 10 18 0 10 5 23 12 30
7 7 9 12 6 12 -3 0 -10 -6 -15 -12z"/>
<path d="M2960 5246 c0 -2 7 -7 16 -10 8 -3 12 -2 9 4 -6 10 -25 14 -25 6z"/>
<path d="M2927 5223 c3 -7 6 -13 8 -13 2 0 5 6 8 13 3 8 -1 14 -8 14 -7 0 -11
-6 -8 -14z"/>
<path d="M7144 4539 c-2 -4 4 -13 13 -20 12 -10 14 -10 9 -1 -4 6 -3 12 3 12
5 0 11 -6 14 -12 3 -7 4 -3 4 9 -1 14 -7 21 -20 20 -10 -1 -20 -4 -23 -8z"/>
<path d="M7177 4479 c7 -7 15 -10 18 -7 3 3 -2 9 -12 12 -14 6 -15 5 -6 -5z"/>
<path d="M7196 4443 c5 -5 12 -12 16 -18 4 -6 8 -2 8 8 0 9 -7 17 -17 17 -9 0
-12 -3 -7 -7z"/>
<path d="M3210 4339 c0 -5 5 -7 10 -4 6 3 10 8 10 11 0 2 -4 4 -10 4 -5 0 -10
-5 -10 -11z"/>
<path d="M7419 4298 c-6 -11 -4 -66 2 -62 9 5 21 -25 14 -37 -4 -5 1 -6 10 -3
12 5 13 9 4 20 -6 8 -9 14 -5 14 4 0 0 13 -8 29 -9 16 -12 31 -9 35 4 3 3 6 0
6 -4 0 -8 -1 -8 -2z"/>
<path d="M3324 4242 c3 -5 0 -13 -6 -15 -9 -4 -10 -6 -1 -6 17 -1 25 16 12 25
-7 4 -9 3 -5 -4z"/>
<path d="M7454 4160 c1 -16 5 -30 10 -30 5 0 3 -6 -3 -14 -9 -11 -9 -16 0 -22
8 -5 9 -3 4 6 -6 10 -4 12 9 7 14 -5 15 -3 6 13 -5 10 -10 30 -10 44 0 14 -4
26 -9 26 -4 0 -8 -13 -7 -30z"/>
<path d="M3417 4167 c-3 -8 1 -14 8 -14 7 0 11 6 8 14 -3 7 -6 13 -8 13 -2 0
-5 -6 -8 -13z"/>
<path d="M7295 4089 c-4 -6 -5 -12 -2 -15 2 -3 7 2 10 11 7 17 1 20 -8 4z"/>
<path d="M3175 4020 c3 -5 8 -10 11 -10 2 0 4 5 4 10 0 6 -5 10 -11 10 -5 0
-7 -4 -4 -10z"/>
<path d="M7466 3987 c3 -10 9 -15 12 -12 3 3 0 11 -7 18 -10 9 -11 8 -5 -6z"/>
<path d="M7095 3487 c-10 -8 -14 -16 -9 -19 5 -3 18 3 28 13 22 22 9 26 -19 6z"/>
<path d="M7026 3398 c3 -5 10 -6 15 -3 13 9 11 12 -6 12 -8 0 -12 -4 -9 -9z"/>
<path d="M7076 3383 c-6 -14 -5 -15 5 -6 7 7 10 15 7 18 -3 3 -9 -2 -12 -12z"/>
<path d="M7033 3345 c0 -8 4 -12 9 -9 5 3 6 10 3 15 -9 13 -12 11 -12 -6z"/>
<path d="M3820 3250 c-8 -5 -12 -12 -9 -15 4 -3 12 1 19 10 14 17 11 19 -10 5z"/>
<path d="M6245 2980 c-3 -6 1 -7 9 -4 18 7 21 14 7 14 -6 0 -13 -4 -16 -10z"/>
<path d="M2575 2860 c3 -5 8 -10 11 -10 2 0 4 5 4 10 0 6 -5 10 -11 10 -5 0
-7 -4 -4 -10z"/>
<path d="M6381 2863 c-1 -7 8 -17 19 -23 14 -7 20 -7 20 0 0 5 -6 10 -14 10
-8 0 -17 6 -19 13 -4 9 -6 9 -6 0z"/>
<path d="M6427 2831 c-3 -13 0 -18 7 -15 7 3 13 11 13 19 0 22 -14 18 -20 -4z"/>
<path d="M7015 2510 c-3 -6 1 -7 9 -4 18 7 21 14 7 14 -6 0 -13 -4 -16 -10z"/>
<path d="M8570 1659 c0 -5 5 -7 10 -4 6 3 10 8 10 11 0 2 -4 4 -10 4 -5 0 -10
-5 -10 -11z"/>
<path d="M647 1483 c-4 -3 -7 -11 -7 -17 0 -6 5 -5 12 2 6 6 9 14 7 17 -3 3
-9 2 -12 -2z"/>
<path d="M635 120 c-3 -5 -1 -10 4 -10 6 0 11 5 11 10 0 6 -2 10 -4 10 -3 0
-8 -4 -11 -10z"/>
</g>
</svg>
